<svg xmlns="http://www.w3.org/2000/svg" viewBox="0 0 180 300.28"><defs><style>.cls-1{opacity:0.1;}</style></defs><title>number</title><g id="_9" data-name="9"><polygon points="147.78 123.72 147.78 37.8 180 5.59 180 131.88 168.24 143.91 147.78 123.72"/><polygon points="180 168.4 180 294.27 147.78 262.05 147.78 176.13 168.24 155.94 180 168.4"/></g><g id="_1" data-name="1"><path d="M147.78,123.72V37.81L180,5.59V131.88l-11.76,12ZM180,168.4V294.27l-32.22-32.22V176.13l20.46-20.19Z"/></g><g id="_0" data-name="0"><polygon points="0 131.88 0 5.58 32.22 37.8 32.22 123.72 12.03 143.91 0 131.88"/><polygon points="173.98 0 142.19 32.22 37.8 32.22 6.02 0 173.98 0"/><polygon class="cls-1" points="146.06 134.03 162.38 150.14 146.06 166.25 33.94 166.25 18.04 150.14 33.94 134.03 146.06 134.03"/><path d="M174,0,142.19,32.22H37.8L6,0Zm-26.2,123.72V37.8L180,5.58v126.3l-11.76,12ZM180,168.4V294.27l-32.22-32.22V176.13l20.46-20.19Z"/><path d="M0,131.88V5.58L32.22,37.8v85.92L12,143.91Zm32.22,44.25v85.92L0,294.27V168.4l12-12.46ZM174,0,142.19,32.22H37.8L6,0Zm0,300.28H6L37.8,268.06H142.19Zm-26.2-176.56V37.8L180,5.58v126.3l-11.76,12ZM180,168.4V294.27l-32.22-32.22V176.13l20.46-20.19Z"/></g></svg>