<?xml version="1.0" encoding="utf-8"?>
<!-- Generator: Adobe Illustrator 22.1.0, SVG Export Plug-In . SVG Version: 6.00 Build 0)  -->
<svg version="1.1" id="Layer_1" xmlns="http://www.w3.org/2000/svg" xmlns:xlink="http://www.w3.org/1999/xlink" x="0px" y="0px"
	 viewBox="0 0 180 300.3" style="enable-background:new 0 0 180 300.3;" xml:space="preserve">
<style type="text/css">
	.st0{opacity:0.1;enable-background:new    ;}
</style>
<title>number</title>
<polygon class="st0" points="146.1,134 162.4,150.1 146.1,166.3 33.9,166.3 18,150.1 33.9,134 "/>
<path d="M0,131.9V5.6l32.2,32.2v85.9L12,143.9L0,131.9z M32.2,176.1V262L0,294.3V168.4l12-12.5L32.2,176.1z M174,0l-31.8,32.2H37.8
	L6,0H174z M174,300.3H6l31.8-32.2h104.4L174,300.3z M147.8,123.7V37.8L180,5.6v126.3l-11.8,12L147.8,123.7z M180,168.4v125.9
	L147.8,262v-85.9l20.5-20.2L180,168.4z"/>
</svg>
