<svg xmlns="http://www.w3.org/2000/svg" viewBox="0 0 1980 300.28"><defs><style>.cls-1{opacity:0.1;}</style></defs><title>number</title><g id="_9" data-name="9"><polygon points="147.78 123.72 147.78 37.8 180 5.59 180 131.88 168.24 143.91 147.78 123.72"/><polygon points="180 168.4 180 294.27 147.78 262.05 147.78 176.13 168.24 155.94 180 168.4"/></g><g id="_8" data-name="8"><polygon class="cls-1" points="200 131.88 200 5.58 232.22 37.8 232.22 123.72 212.03 143.91 200 131.88"/><polygon class="cls-1" points="232.22 176.13 232.22 262.05 200 294.27 200 168.4 212.03 155.94 232.22 176.13"/><polygon class="cls-1" points="373.98 0 342.19 32.22 237.8 32.22 206.01 0 373.98 0"/><polygon class="cls-1" points="373.98 300.28 206.01 300.28 237.8 268.06 342.19 268.06 373.98 300.28"/><polygon class="cls-1" points="346.06 134.03 362.38 150.14 346.06 166.25 233.94 166.25 218.04 150.14 233.94 134.03 346.06 134.03"/><polygon points="347.77 123.72 347.77 37.8 380 5.58 380 131.88 368.24 143.91 347.77 123.72"/><polygon points="380 168.4 380 294.27 347.77 262.05 347.77 176.13 368.24 155.94 380 168.4"/><polygon class="cls-1" points="600 131.88 600 5.58 632.22 37.8 632.22 123.72 612.03 143.91 600 131.88"/><polygon class="cls-1" points="632.22 176.13 632.22 262.05 600 294.27 600 168.4 612.03 155.94 632.22 176.13"/><polygon points="773.98 0 742.19 32.22 637.8 32.22 606.01 0 773.98 0"/><polygon points="773.98 300.28 606.01 300.28 637.8 268.06 742.19 268.06 773.98 300.28"/><polygon points="746.06 134.03 762.38 150.14 746.06 166.25 633.93 166.25 618.04 150.14 633.93 134.03 746.06 134.03"/><polygon points="747.77 123.72 747.77 37.8 780 5.58 780 131.88 768.24 143.91 747.77 123.72"/><polygon points="780 168.4 780 294.27 747.77 262.05 747.77 176.13 768.24 155.94 780 168.4"/><polygon points="800 131.88 800 5.58 832.22 37.8 832.22 123.72 812.03 143.91 800 131.88"/><polygon class="cls-1" points="832.22 176.13 832.22 262.05 800 294.27 800 168.4 812.03 155.94 832.22 176.13"/><polygon class="cls-1" points="973.98 0 942.19 32.22 837.8 32.22 806.01 0 973.98 0"/><polygon class="cls-1" points="973.98 300.28 806.01 300.28 837.8 268.06 942.19 268.06 973.98 300.28"/><polygon points="946.06 134.03 962.38 150.14 946.06 166.25 833.93 166.25 818.04 150.14 833.93 134.03 946.06 134.03"/><polygon points="947.77 123.72 947.77 37.8 980 5.58 980 131.88 968.24 143.91 947.77 123.72"/><polygon points="980 168.4 980 294.27 947.77 262.05 947.77 176.13 968.24 155.94 980 168.4"/><polygon points="1000 131.88 1000 5.58 1032.22 37.8 1032.22 123.72 1012.03 143.91 1000 131.88"/><polygon class="cls-1" points="1032.22 176.13 1032.22 262.05 1000 294.27 1000 168.4 1012.03 155.94 1032.22 176.13"/><polygon points="1173.98 0 1142.19 32.22 1037.8 32.22 1006.01 0 1173.98 0"/><polygon points="1173.98 300.28 1006.01 300.28 1037.8 268.06 1142.19 268.06 1173.98 300.28"/><polygon points="1146.06 134.03 1162.38 150.14 1146.06 166.25 1033.93 166.25 1018.04 150.14 1033.93 134.03 1146.06 134.03"/><polygon class="cls-1" points="1147.78 123.72 1147.78 37.8 1179.99 5.58 1179.99 131.88 1168.24 143.91 1147.78 123.72"/><polygon points="1179.99 168.4 1179.99 294.27 1147.78 262.05 1147.78 176.13 1168.24 155.94 1179.99 168.4"/><polygon points="1600 131.88 1600 5.58 1632.22 37.8 1632.22 123.72 1612.03 143.91 1600 131.88"/><polygon points="1632.22 176.13 1632.22 262.05 1600 294.27 1600 168.4 1612.03 155.94 1632.22 176.13"/><polygon points="1773.98 0 1742.19 32.22 1637.8 32.22 1606.01 0 1773.98 0"/><polygon points="1773.98 300.28 1606.01 300.28 1637.8 268.06 1742.19 268.06 1773.98 300.28"/><polygon points="1746.06 134.03 1762.38 150.14 1746.06 166.25 1633.94 166.25 1618.04 150.14 1633.94 134.03 1746.06 134.03"/><polygon points="1747.78 123.72 1747.78 37.8 1780 5.58 1780 131.88 1768.24 143.91 1747.78 123.72"/><polygon points="1780 168.4 1780 294.27 1747.78 262.05 1747.78 176.13 1768.24 155.94 1780 168.4"/><polygon class="cls-1" points="1400 131.88 1400 5.58 1432.22 37.8 1432.22 123.72 1412.03 143.91 1400 131.88"/><polygon class="cls-1" points="1432.22 176.13 1432.22 262.05 1400 294.27 1400 168.4 1412.03 155.94 1432.22 176.13"/><polygon points="1573.98 0 1542.19 32.22 1437.8 32.22 1406.02 0 1573.98 0"/><polygon class="cls-1" points="1573.98 300.28 1406.02 300.28 1437.8 268.06 1542.19 268.06 1573.98 300.28"/><polygon class="cls-1" points="1546.06 134.03 1562.38 150.14 1546.06 166.25 1433.94 166.25 1418.04 150.14 1433.94 134.03 1546.06 134.03"/><polygon points="1547.78 123.72 1547.78 37.8 1580 5.58 1580 131.88 1568.24 143.91 1547.78 123.72"/><polygon points="1580 168.4 1580 294.27 1547.78 262.05 1547.78 176.13 1568.24 155.94 1580 168.4"/><polygon points="1200 131.88 1200 5.58 1232.22 37.8 1232.22 123.72 1212.03 143.91 1200 131.88"/><polygon points="1232.22 176.13 1232.22 262.05 1200 294.27 1200 168.4 1212.03 155.94 1232.22 176.13"/><polygon points="1373.98 0 1342.19 32.22 1237.8 32.22 1206.01 0 1373.98 0"/><polygon points="1373.98 300.28 1206.01 300.28 1237.8 268.06 1342.19 268.06 1373.98 300.28"/><polygon points="1346.06 134.03 1362.38 150.14 1346.06 166.25 1233.93 166.25 1218.04 150.14 1233.93 134.03 1346.06 134.03"/><polygon class="cls-1" points="1347.78 123.72 1347.78 37.8 1379.99 5.58 1379.99 131.88 1368.24 143.91 1347.78 123.72"/><polygon points="1379.99 168.4 1379.99 294.27 1347.78 262.05 1347.78 176.13 1368.24 155.94 1379.99 168.4"/><polygon class="cls-1" points="400 131.88 400 5.58 432.22 37.8 432.22 123.72 412.03 143.91 400 131.88"/><polygon points="432.22 176.13 432.22 262.05 400 294.27 400 168.4 412.03 155.94 432.22 176.13"/><polygon points="573.98 0 542.19 32.22 437.8 32.22 406.01 0 573.98 0"/><polygon points="573.98 300.28 406.01 300.28 437.8 268.06 542.19 268.06 573.98 300.28"/><polygon points="546.06 134.03 562.38 150.14 546.06 166.25 433.94 166.25 418.04 150.14 433.94 134.03 546.06 134.03"/><polygon points="547.77 123.72 547.77 37.8 580 5.58 580 131.88 568.24 143.91 547.77 123.72"/><polygon class="cls-1" points="580 168.4 580 294.27 547.77 262.05 547.77 176.13 568.24 155.94 580 168.4"/><polygon points="1800 131.88 1800 5.58 1832.22 37.8 1832.22 123.72 1812.03 143.91 1800 131.88"/><polygon class="cls-1" points="1832.22 176.13 1832.22 262.05 1800 294.27 1800 168.4 1812.03 155.94 1832.22 176.13"/><polygon points="1973.98 0 1942.19 32.22 1837.8 32.22 1806.01 0 1973.98 0"/><polygon points="1973.98 300.28 1806.01 300.28 1837.8 268.06 1942.19 268.06 1973.98 300.28"/><polygon points="1946.06 134.03 1962.38 150.14 1946.06 166.25 1833.94 166.25 1818.04 150.14 1833.94 134.03 1946.06 134.03"/><polygon points="1947.78 123.72 1947.78 37.8 1980 5.58 1980 131.88 1968.24 143.91 1947.78 123.72"/><polygon points="1980 168.4 1980 294.27 1947.78 262.05 1947.78 176.13 1968.24 155.94 1980 168.4"/></g><g id="_1" data-name="1"><path d="M147.78,123.72V37.81L180,5.59V131.88l-11.76,12ZM180,168.4V294.27l-32.22-32.22V176.13l20.46-20.19Z" transform="translate(0)"/></g><g id="_0" data-name="0"><polygon points="0 131.88 0 5.58 32.22 37.8 32.22 123.72 12.03 143.91 0 131.88"/><polygon points="173.98 0 142.19 32.22 37.8 32.22 6.01 0 173.98 0"/><polygon class="cls-1" points="146.06 134.03 162.38 150.14 146.06 166.25 33.94 166.25 18.04 150.14 33.94 134.03 146.06 134.03"/><path d="M174,0,142.19,32.22H37.8L6,0Zm-26.2,123.72V37.8L180,5.58v126.3l-11.76,12ZM180,168.4V294.27l-32.22-32.22V176.13l20.46-20.19Z" transform="translate(0)"/><path d="M0,131.88V5.58L32.22,37.8v85.92L12,143.91Zm32.22,44.25v85.92L0,294.27V168.4l12-12.46ZM174,0,142.19,32.22H37.8L6,0Zm0,300.28H6L37.8,268.06H142.19Zm-26.2-176.56V37.8L180,5.58v126.3l-11.76,12ZM180,168.4V294.27l-32.22-32.22V176.13l20.46-20.19Z" transform="translate(0)"/></g></svg>