<?xml version="1.0" encoding="utf-8"?>
<!-- Generator: Adobe Illustrator 22.1.0, SVG Export Plug-In . SVG Version: 6.00 Build 0)  -->
<svg version="1.1" id="Layer_1" xmlns="http://www.w3.org/2000/svg" xmlns:xlink="http://www.w3.org/1999/xlink" x="0px" y="0px"
	 viewBox="0 0 512 512" style="enable-background:new 0 0 512 512;" xml:space="preserve">
<style type="text/css">
	.st0{fill:none;stroke:#008D00;stroke-width:3;stroke-miterlimit:10;}
	.st1{fill:#008D00;stroke:#008D00;stroke-width:3;stroke-miterlimit:10;}
	.st2{fill:#008D00;}
	.st3{fill:#FFFFFF;}
	.st4{fill:url(#XMLID_3_);}
	.st5{fill:none;stroke:#008D00;stroke-width:4;stroke-miterlimit:10;}
	.st6{fill:#008D00;stroke:#008D00;stroke-width:2;stroke-miterlimit:10;}
	.st7{fill:none;}
	.st8{clip-path:url(#SVGID_2_);}
	.st9{fill:#FDDEC9;}
	.st10{opacity:0.3;}
	.st11{clip-path:url(#SVGID_4_);}
	.st12{fill:#E5E5E6;}
	.st13{fill:#414042;}
	.st14{opacity:0.4;fill:#414042;}
	.st15{fill:#663700;}
	.st16{opacity:0.4;fill:#663700;}
	.st17{fill:#7D4300;}
	.st18{fill:#EEEAE5;}
	.st19{opacity:0.4;fill:#EEEAE5;}
	.st20{opacity:0.5;fill:#FFFFFF;}
	.st21{fill:#A90634;}
	.st22{fill:#B0A77E;}
	.st23{opacity:0.5;fill:#B0A77E;}
	.st24{fill:#EA1849;}
	.st25{opacity:0.3;fill:#A90634;}
	.st26{opacity:0.4;fill:#A90634;}
	.st27{fill:#FBC691;}
	.st28{opacity:0.3;fill:#F2BE90;}
	.st29{fill:#FAD7B3;}
	.st30{opacity:0.3;fill:#FAD7B3;}
	.st31{opacity:0.3;fill:#663700;}
	.st32{fill:#231F20;}
	.st33{opacity:0.74;}
	.st34{fill:#FCFCFC;}
	.st35{fill:#FBFBFB;}
	.st36{fill:#FAFAFA;}
	.st37{fill:#F9F9F9;}
	.st38{fill:#F8F8F9;}
	.st39{fill:#F7F8F8;}
	.st40{fill:#F6F7F7;}
	.st41{fill:#F5F6F6;}
	.st42{fill:#F4F5F5;}
	.st43{fill:#F3F4F4;}
	.st44{fill:#F2F3F3;}
	.st45{fill:#F1F2F3;}
	.st46{fill:#F0F1F2;}
	.st47{fill:#EFF1F1;}
	.st48{fill:#EEF0F0;}
	.st49{fill:#EDEFEF;}
	.st50{fill:#ECEEEE;}
	.st51{fill:#ECEDEE;}
	.st52{fill:#EBECED;}
	.st53{fill:#EAEBEC;}
	.st54{fill:#E9EAEB;}
	.st55{fill:#E8E9EA;}
	.st56{fill:#E7E9E9;}
	.st57{fill:#E6E8E8;}
	.st58{fill:#E5E7E8;}
	.st59{fill:#E4E6E7;}
	.st60{fill:#E3E5E6;}
	.st61{fill:#E2E4E5;}
	.st62{fill:#E1E3E4;}
	.st63{fill:#E0E2E3;}
	.st64{fill:#DFE2E2;}
	.st65{fill:#DEE1E2;}
	.st66{fill:#DDE0E1;}
	.st67{fill:#DCDFE0;}
	.st68{fill:#DBDEDF;}
	.st69{opacity:0;fill:#D3D6D7;}
	.st70{opacity:0.1111;fill:#D4D7D8;}
	.st71{opacity:0.2222;fill:#D5D8D9;}
	.st72{opacity:0.3333;fill:#D6D9DA;}
	.st73{opacity:0.4444;fill:#D7DADB;}
	.st74{opacity:0.5556;fill:#D7DADB;}
	.st75{opacity:0.6667;fill:#D8DBDC;}
	.st76{opacity:0.7778;fill:#D9DCDD;}
	.st77{opacity:0.8889;fill:#DADDDE;}
	.st78{opacity:0.1111;fill:#D2D5D6;}
	.st79{opacity:0.2222;fill:#D1D4D5;}
	.st80{opacity:0.3333;fill:#D0D4D4;}
	.st81{opacity:0.4444;fill:#CFD3D3;}
	.st82{opacity:0.5556;fill:#CFD2D3;}
	.st83{opacity:0.6667;fill:#CED1D2;}
	.st84{opacity:0.7778;fill:#CDD1D1;}
	.st85{opacity:0.8889;fill:#CCD0D0;}
	.st86{fill:#CBCFCF;}
	.st87{opacity:0;fill:#F6F6F6;}
	.st88{opacity:0.1111;fill:#F7F7F7;}
	.st89{opacity:0.2222;fill:#F8F8F8;}
	.st90{opacity:0.3333;fill:#F9F9F9;}
	.st91{opacity:0.4444;fill:#FAFAFA;}
	.st92{opacity:0.5556;fill:#FBFBFB;}
	.st93{opacity:0.6667;fill:#FCFCFC;}
	.st94{opacity:0.7778;fill:#FDFDFD;}
	.st95{opacity:0.8889;fill:#FEFEFE;}
	.st96{opacity:0;fill:#FFFFFF;}
	.st97{opacity:0.1667;fill:#FEFEFE;}
	.st98{opacity:0.3333;fill:#FDFDFD;}
	.st99{opacity:0.5;fill:#FDFDFD;}
	.st100{opacity:0.8333;fill:#FBFBFB;}
	.st101{opacity:0;fill:#F8F8F8;}
	.st102{opacity:9.090909e-02;fill:#F9F9F9;}
	.st103{opacity:0.1818;fill:#F9F9F9;}
	.st104{opacity:0.2727;fill:#FAFAFA;}
	.st105{opacity:0.3636;fill:#FBFBFB;}
	.st106{opacity:0.4545;fill:#FBFBFB;}
	.st107{opacity:0.5455;fill:#FCFCFC;}
	.st108{opacity:0.6364;fill:#FCFCFC;}
	.st109{opacity:0.7273;fill:#FDFDFD;}
	.st110{opacity:0.8182;fill:#FEFEFE;}
	.st111{opacity:0.9091;fill:#FEFEFE;}
	.st112{fill:#FEFEFE;}
	.st113{fill:#FDFDFD;}
	.st114{fill:#FBFCFC;}
	.st115{fill:#FAFBFB;}
	.st116{fill:#F9FAFA;}
	.st117{fill:#F8F9F9;}
	.st118{fill:#F3F5F5;}
	.st119{fill:#F2F4F4;}
	.st120{fill:#F1F3F3;}
	.st121{fill:#F0F2F2;}
	.st122{fill:#F0F1F1;}
	.st123{fill:#EFF0F0;}
	.st124{fill:#EEEFEF;}
	.st125{fill:#EDEEEE;}
	.st126{fill:#EBEDED;}
	.st127{fill:#EAECEC;}
	.st128{fill:#E9EBEB;}
	.st129{fill:#E8EAEA;}
	.st130{fill:#E5E7E7;}
	.st131{fill:#E4E7E7;}
	.st132{fill:#E3E6E6;}
	.st133{fill:#E2E5E5;}
	.st134{fill:#E1E4E4;}
	.st135{opacity:9.000000e-02;fill:#FFFFFF;}
	.st136{opacity:0.2037;fill:#FFFFFF;}
	.st137{opacity:0.3175;fill:#FFFFFF;}
	.st138{opacity:0.4313;fill:#FFFFFF;}
	.st139{opacity:0.545;fill:#FFFFFF;}
	.st140{opacity:0.6587;fill:#FFFFFF;}
	.st141{opacity:0.7725;fill:#FFFFFF;}
	.st142{opacity:0.8863;fill:#FFFFFF;}
	.st143{opacity:0;fill:#E5E8E8;}
	.st144{opacity:5.263158e-02;fill:#E4E7E7;}
	.st145{opacity:0.1053;fill:#E3E6E6;}
	.st146{opacity:0.1579;fill:#E2E5E5;}
	.st147{opacity:0.2105;fill:#E1E4E4;}
	.st148{opacity:0.2632;fill:#E0E3E4;}
	.st149{opacity:0.3158;fill:#DFE2E3;}
	.st150{opacity:0.3684;fill:#DEE1E2;}
	.st151{opacity:0.4211;fill:#DDE0E1;}
	.st152{opacity:0.4737;fill:#DCDFE0;}
	.st153{opacity:0.5263;fill:#DCDFDF;}
	.st154{opacity:0.5789;fill:#DBDEDE;}
	.st155{opacity:0.6316;fill:#DADDDD;}
	.st156{opacity:0.6842;fill:#D9DCDC;}
	.st157{opacity:0.7368;fill:#D8DBDB;}
	.st158{opacity:0.7895;fill:#D7DADB;}
	.st159{opacity:0.8421;fill:#D6D9DA;}
	.st160{opacity:0.8947;fill:#D5D8D9;}
	.st161{opacity:0.9474;fill:#D4D7D8;}
	.st162{fill:#D3D6D7;}
	.st163{opacity:0.63;}
	.st164{fill:url(#XMLID_4_);}
	.st165{fill:url(#XMLID_5_);}
	.st166{opacity:0.77;}
	.st167{fill:url(#XMLID_6_);}
	.st168{fill:#C0C5C6;}
	.st169{fill:#B6BBBC;}
	.st170{fill:url(#XMLID_7_);}
	.st171{opacity:0.68;}
	.st172{fill:#C5C9CA;}
	.st173{fill:url(#XMLID_8_);}
	.st174{fill:url(#XMLID_9_);}
	.st175{opacity:0.7;fill:url(#XMLID_10_);}
	.st176{fill:url(#XMLID_11_);}
	.st177{fill:url(#XMLID_12_);}
	.st178{fill:url(#XMLID_14_);}
	.st179{fill:url(#XMLID_16_);}
	.st180{fill:url(#XMLID_17_);}
	.st181{fill:url(#XMLID_18_);}
	.st182{opacity:0.7;fill:url(#XMLID_19_);}
	.st183{fill:url(#XMLID_20_);}
	.st184{fill:#E8E8E8;}
	.st185{fill:#E0E0E0;}
	.st186{fill:#D1D1D1;}
	.st187{opacity:0.3;fill:#008D00;stroke:#008D00;stroke-width:3;stroke-miterlimit:10;}
</style>
<g>
	<path class="st0" d="M195.6,289.6c-2.2,1.9-4,4.5-4.7,6.9c0,0-14.5,36.3-31.7,48.9c-17.2,12.6-15.3,11-13.2,16.2
		c2.1,5.1,12,22.9,24,13c4.2-3.5,10.5-9.8,17-17.8"/>
</g>
<g>
	<g>
		<path class="st0" d="M296.7,297.1c3.4,0.1,6.9,1.1,9.2,3c0,0,10.9,7,24.3,13"/>
		<path class="st0" d="M321.8,339.2c-7.1-3.2-13.9-7-19.6-11.4"/>
	</g>
</g>
<g>
	<g>
		<g>
			<path class="st0" d="M197.3,297.2c0,0-18,93.5-12.6,106.7c10.2,25.2,62.3,21.5,62.3,21.5s52.1,3.8,62.3-21.5
				c5.3-13.2-12.6-106.7-12.6-106.7"/>
		</g>
	</g>
	<path class="st0" d="M196.4,302.3l1.6-11"/>
	<line class="st0" x1="296.5" y1="292.5" x2="297.7" y2="302.3"/>
	<g>
		<g>
			<path class="st1" d="M254.3,343c0,4-3.2,7.2-7.2,7.2c-4,0-7.2-3.2-7.2-7.2c0-4,3.2-7.2,7.2-7.2C251,335.7,254.3,339,254.3,343z"
				/>
		</g>
		<g>
			<path class="st1" d="M254.3,365.7c0,4-3.2,7.2-7.2,7.2c-4,0-7.2-3.2-7.2-7.2c0-4,3.2-7.2,7.2-7.2
				C251,358.5,254.3,361.7,254.3,365.7z"/>
		</g>
		<g>
			<path class="st1" d="M254.3,388.4c0,4-3.2,7.2-7.2,7.2c-4,0-7.2-3.2-7.2-7.2c0-4,3.2-7.2,7.2-7.2
				C251,381.2,254.3,384.4,254.3,388.4z"/>
		</g>
	</g>
	<g>
		<g>
			<g>
				<path class="st1" d="M240.7,309.1c0,0-4.5-11-18.8-8.2c-11,2.2-17.5,8.8-27.4,4.4c0,0,6.8,19,29,19.8
					C240.8,325.6,243.4,314.9,240.7,309.1z"/>
				<path class="st1" d="M240.9,311c0,0-2.3-5-10.7-4.2c-8.4,0.8-13.8,3.3-10.7,3.7c3.1,0.4,8.2,0.9,8.8,0.9c0.6,0-5.8,4.3-16.5,3.5
					C211.7,314.9,241.7,324.2,240.9,311z"/>
			</g>
			<g>
				<path class="st1" d="M253.4,309.1c0,0,4.5-11,18.8-8.2c11,2.2,17.5,8.8,27.4,4.4c0,0-6.8,19-29,19.8
					C253.3,325.6,250.6,314.9,253.4,309.1z"/>
				<path class="st1" d="M253.2,311c0,0,2.3-5,10.7-4.2c8.4,0.8,13.8,3.3,10.7,3.7c-3.1,0.4-8.2,0.9-8.8,0.9
					c-0.6,0,5.8,4.3,16.5,3.5C282.3,314.9,252.4,324.2,253.2,311z"/>
			</g>
		</g>
		<g>
			<path class="st1" d="M258.2,310.7c0,4.9-5.1,8.8-11.3,8.8c-6.2,0-11.3-3.9-11.3-8.8c0-4.9,5-8.8,11.3-8.8
				C253.2,301.9,258.2,305.9,258.2,310.7z"/>
		</g>
	</g>
</g>
<g>
	<path class="st0" d="M146,362c0,0-11.4,14.9-17.7,3c-1.6-3-7.9,2.7,0.4,9.7c0,0-6.4,1.1-9.9,1.3c-3.4,0.2-4.3,3.9-1.3,4.9
		c3,1,10.3-0.4,10.3-0.4s-5.4,5.1-6.9,5.3c-1.5,0.3-3.1,3.3,0.1,4.2c3.2,0.9,9.5-4.1,9.5-4.1s-4.3,7.3-5.9,8.7
		c-1.6,1.4,1.8,4.7,4.3,1.7c2.6-2.9,5.5-6.4,5.5-6.4s-0.9,6.3-1.5,8.4c-0.6,2.1,3.4,4.4,4.5-1.9c1.1-6.3,5-13.8,17.5-21.2"/>
</g>
<g>
	<g>
		<path class="st0" d="M327.4,219.5c2.9,0.2,5.8,1.4,8.5,3.1c6.2,4,7,13.7,1.9,21.8c-3.5,5.4-8.8,8.7-13.8,9"/>
	</g>
	<g>
		<path class="st0" d="M167.5,219.5c-2.9,0.2-5.8,1.4-8.5,3.1c-6.2,4-7,13.7-1.9,21.8c3.5,5.5,8.9,8.7,14,9"/>
	</g>
</g>
<g>
	<path class="st0" d="M323,194.3c4.1,9.6,4.3,18.2,4.3,29.4c0,44.4-16.7,80.4-79.8,80.4c-58.4,0-79.8-36-79.8-80.4
		c0-10.2,1.9-19.9,5.3-28.9"/>
</g>
<path class="st2" d="M216,229.9c-5.6,0-10.1,5.1-10.1,11.3s4.5,11.3,10.1,11.3s10.1-5.1,10.1-11.3S221.6,229.9,216,229.9z
	 M221.6,243.4c-1.5,0-2.8-1.2-2.8-2.8c0-0.3,0.1-0.6,0.2-0.9c-0.6,0.4-1.2,0.6-1.9,0.6c-2,0-3.6-1.6-3.6-3.6c0-2,1.6-3.6,3.6-3.6
	c2,0,3.6,1.6,3.6,3.6c0,0.5-0.1,1-0.3,1.5c0.4-0.2,0.8-0.3,1.3-0.3c1.5,0,2.8,1.3,2.8,2.8C224.4,242.2,223.2,243.4,221.6,243.4z"/>
<path class="st1" d="M265.8,225.6c0,0,10.6-12.2,26-1.2C291.8,224.4,279.6,206.3,265.8,225.6z"/>
<path class="st1" d="M203.1,225.6c0,0,10.6-12.2,26-1.2C229.1,224.4,216.9,206.3,203.1,225.6z"/>
<path class="st3" d="M235.8,272.7c0,0,11.7,3.8,23.3-1c0,0-3.6,11-12.2,10.3C238.6,281.4,235.8,272.7,235.8,272.7z"/>
<g id="XMLID_3735_">
	
		<image style="overflow:visible;opacity:0.35;" width="121" height="122" xlink:href="643B56F9C9E684D5.png"  transform="matrix(1 0 0 1 111 139)">
	</image>
	<g>
		<g>
			<linearGradient id="XMLID_3_" gradientUnits="userSpaceOnUse" x1="171.1191" y1="196.6805" x2="171.1161" y2="197.0929">
				<stop  offset="0" style="stop-color:#ECEEEE"/>
				<stop  offset="1" style="stop-color:#ECEEEE;stop-opacity:0"/>
			</linearGradient>
			<path id="XMLID_13_" class="st4" d="M171.1,197.1c0,0,0-0.1,0-0.3C171.1,197,171.1,197.1,171.1,197.1z"/>
		</g>
	</g>
</g>
<path id="XMLID_1_" class="st5" d="M175.7,149.7c0,0,3.4-3.5-2.4-6.6c-5.8-3.1-17.9-10.5-24-15.3c-6.1-4.8-11.3-15.3-11.3-15.3
	s-4.6-7.9-4.5-14.9s2.8-8.3,2.8-17.3S143,62,155.5,56.1s31.1-6.1,43.3-8.6c12.3-2.6,30.5-6.6,45.4-4.6c14.9,2,16.4,4.6,37.8,8.3
	c21.4,3.7,37.2,8.1,46.5,14s10.4,10.3,22.7,18.4s22.5,14.7,24.2,21.3c1.5,5.8,1,12.3,1.9,14.8c0.1,0.3,0.3,0.4,0.5,0.6
	c1.5,1.7,10,13.6,7.1,22.2s-13,9.7-16.4,10.1c-3.3,0.4-5.4,0.2-5.4,0.2s-5,6.1-20.5,5.7s-25.1-9-25.1-9"/>
<path id="XMLID_3591_" class="st6" d="M175.7,148c0-0.6,4.6-8.7-4.5-15.8c-7.7-6-13.9-9.4-20.7-13.8c-6.9-4.4-12.5-9.9-12.5-9.9
	s6.8,7.4,15.3,12.8c8.6,5.3,16.2,9.6,20.1,14.3c3.9,4.8,1.6,8.2,1.6,12.8C175,154.8,174.9,153.4,175.7,148z"/>
<path id="XMLID_3589_" class="st6" d="M279.8,140.2c0,0,2-7.5,3-11.8c1-4.2,2.2-7.8,4.5-20.5c2-11.1,4-19.9,7.1-25.4
	c3.1-5.5,7.8-12.4,7.8-12.4s-7.9,12.4-10,19s-4.7,25.4-6.2,31.2c-1.5,5.9-1.8,7-2.8,10.7c-1,3.7-3.1,9.1-3.1,9.1L279.8,140.2z"/>
<path id="XMLID_1956_" class="st6" d="M190.3,139.4c0,0,1.1-7-3.2-17.5c-4.3-10.5-16.2-32.3-19.3-37.9s-7.8-11-9.7-13.6
	c-1.9-2.6-5.4-5.5-5.4-5.5s12.1,14.9,17.9,25.9c5.8,11,11.9,22.2,14.1,28.1c2.2,5.9,4.5,8.8,4.6,14.7c0.2,5.9,0.4,6.8,0.4,6.8
	L190.3,139.4z"/>
<path id="XMLID_1955_" class="st6" d="M219.2,87.1c0,0,7.3,16.2,9.3,24.3c2,8.1,2.4,14.1,2.1,18.4c-0.2,4.3-0.6,7.2-0.6,7.2l0.7-0.1
	c0,0,1.4-8.9,0-17.6c-1.6-10.4-4.3-16.2-6.9-22.6C221.6,91.1,219.2,87.1,219.2,87.1z"/>
<path id="XMLID_1919_" class="st6" d="M317,148.4c0,0,0.9-6.4,5.8-11.7c1.5-1.6,3.3-3,5.6-4.2c9.9-4.9,18-4.3,25.3-8.1
	c11.9-6.1,15.3-13.5,17.6-15.8c1.3-1.3,0.6,0.1-2.7,4c-3.1,3.7-7.5,8.8-14.5,12.3c-4.8,2.4-13.9,4.1-19,5.7s-8.4,2.8-11.5,6.2
	c-1.9,2.1-3.8,4.9-4.7,7.2c-0.9,2.3-1.4,4.4-1.4,4.4L317,148.4z"/>
<path id="XMLID_1153_" class="st5" d="M175.9,150.6c0,0-1.5,21.1-2.8,28.1c-1.3,7-2.2,18.3-2.2,18.3s4-6,22.1-8.9
	c23-3.7,58.8-5.7,85.5-4c26.8,1.7,37.9,6.2,40.5,8.1c1.2,0.8,1.9,1.7,2.4,2.3c0.2,0.3,0.7,0.2,0.7-0.2c-0.1-1.8-0.4-5.5-1.3-12
	c-1.5-10.5-2.2-20.9-2.8-24.8c-0.6-3.9-1.1-8.3-1.1-8.3s-2.6-3.3-19.9-6.6c-17.3-3.3-29.8-1.5-47.1-4c-17.3-2.6-35.5,0.4-46.3,1.8
	C184,143,180.9,144.7,175.9,150.6z"/>
<g>
	<g>
		
			<ellipse transform="matrix(0.2159 -0.9764 0.9764 0.2159 61.8777 605.2361)" class="st1" cx="407.8" cy="264.1" rx="4.9" ry="4.9"/>
	</g>
	<g>
		<path class="st0" d="M489.5,330.5c1.3,2,4.4,6.9,4.4,9.1c0,16.2-38.6,29.4-86.2,29.4s-86.2-13.2-86.2-29.4c0-3,1.4-6,3.9-8.7"/>
		<path class="st0" d="M488.5,323.5c2.5,2.8,5.4,7.2,5.4,10.2c0,16.2-38.6,29.4-86.2,29.4s-86.2-13.2-86.2-29.4
			c0-3.6,1.9-7.1,5.4-10.3"/>
		<path class="st0" d="M487.1,340.3c-28.8,23.7-129.9,23.7-158.7,0c-2-1.6-3-4.1-2.9-6.7c0.2-3.4,0.7-6.8,1.5-10.2
			c7.1-27.9,37.8-53.7,80.7-53.7c48.2,0,80.9,32.5,82.3,63.9C490.2,336.2,489.1,338.7,487.1,340.3z"/>
		<path class="st0" d="M401.3,357.7c29.5-0.9,57.7-6.8,70.9-17.7c2-1.6,3-4.1,2.9-6.7c-1.3-29.6-30.3-60.1-73.8-63.6"/>
	</g>
</g>
<circle class="st0" cx="247.3" cy="253" r="7"/>
<rect x="0.3" y="-0.5" class="st7" width="512" height="512"/>
<path class="st2" d="M407.8,368.9c-9.9,0-19.4-0.6-28.3-1.6c-31.6,32.4-75.7,52.5-124.5,52.5C159,419.8,81.2,342,81.2,246
	c0-51.8,22.7-98.3,58.6-130.2c-1.1-1.9-1.8-3.3-1.8-3.3s-4.6-7.9-4.5-14.9c0-1.5,0.2-2.7,0.4-3.8c-57.8,39.1-95.8,105.2-95.8,180.3
	c0,120.1,97.4,217.4,217.4,217.4c87.9,0,163.5-52.1,197.8-127.1C440.2,367.3,424.5,368.9,407.8,368.9z"/>
<g>
	<g>
		<path class="st2" d="M484.8,196.6c0,0,8,24-12.3,35c-23.8,12.9-21.9,17.7-25.7,35.4c0,0-7.1-25,13.4-35.7
			C480.8,220.6,484.8,196.6,484.8,196.6 M483.8,184.2l-2,11.9h0c0,0.2-4.1,22.7-23,32.5c-9.3,4.9-14.9,13.2-16,24.2
			c-0.8,8.1,1,14.7,1.1,15l3.3,11.7l2.5-11.9c0.4-2,0.8-3.9,1.1-5.6c2.4-12.7,3.2-17,23-27.7c9.3-5,14.6-13.3,15.3-24
			c0.6-7.9-1.5-14.3-1.6-14.5L483.8,184.2L483.8,184.2z"/>
	</g>
	<g>
		<path class="st2" d="M460.8,184c0,0,8.5,19.5-7.7,30.3c-18.9,12.6-17.1,16.5-18.8,31.6c0,0-7.9-20.4,8.6-30.9
			C459.3,204.5,460.8,184,460.8,184 M458.7,171.8l-0.9,12c0,0.3-1.7,19.1-16.6,28.7c-7.6,4.9-11.7,12.4-11.8,21.9
			c-0.1,6.9,2,12.4,2.1,12.6l4.4,11.3l1.4-12.1c0.2-1.7,0.4-3.4,0.5-4.8c1.1-11,1.4-14.3,17-24.7c7.5-5,11.4-12.5,11.2-21.7
			c-0.1-6.7-2.4-12-2.5-12.2L458.7,171.8L458.7,171.8z"/>
	</g>
</g>
<path class="st2" d="M446.8,266.9c0,0-7.1-25,13.4-35.7c2.8-1.4,5.2-3.1,7.4-5c-1.7-7.5-3.8-14.9-6.2-22.1c-1.4,3.6-4,7.2-8.3,10.1
	c-18.9,12.6-17.1,16.5-18.8,31.6c0,0-7.9-20.4,8.6-30.9c8.4-5.4,12.9-13.4,15.3-19.9c-21.6-55.3-65.2-99.7-120.1-122.2
	c3.1,3,6.5,6.3,13.1,10.6c12.3,8.1,22.5,14.7,24.2,21.3c1.5,5.8,1,12.3,1.9,14.8c0.1,0.3,0.3,0.4,0.5,0.6c0.7,0.8,2.8,3.7,4.7,7.4
	c28.8,31,46.5,72.6,46.5,118.3c0,8.3-0.8,17.1-1.9,25c18.6,3.6,34.2,13.7,45.1,24.9c0.6-6.5,0.9-15.1,0.9-21.7
	c0-13.9-1.3-27.6-3.8-40.8C448.9,244.9,450.4,250.1,446.8,266.9z"/>
<path class="st2" d="M278,229.9c-5.6,0-10.1,5.1-10.1,11.3s4.5,11.3,10.1,11.3s10.1-5.1,10.1-11.3S283.6,229.9,278,229.9z
	 M283.6,243.4c-1.5,0-2.8-1.2-2.8-2.8c0-0.3,0.1-0.6,0.2-0.9c-0.6,0.4-1.2,0.6-1.9,0.6c-2,0-3.6-1.6-3.6-3.6c0-2,1.6-3.6,3.6-3.6
	c2,0,3.6,1.6,3.6,3.6c0,0.5-0.1,1-0.3,1.5c0.4-0.2,0.8-0.3,1.3-0.3c1.5,0,2.8,1.3,2.8,2.8C286.4,242.2,285.2,243.4,283.6,243.4z"/>
<path class="st2" d="M285.1,259.4l-0.2,3c0.1,0,3.2,0.4,3.2,3.7c0,0.6-0.2,0.6-0.4,0.7c-1.7,0.7-7-1.2-10.1-4.1
	c-4.4-4.3-12.7-7.5-19.7-7.6c-0.1,0-0.2,0-0.3,0c-5.4,0-8.6,2.9-10.2,5.8c-1.7-3-4.9-5.9-10.5-5.8c-7,0.1-15.2,3.3-19.7,7.6
	c-3.1,3-8.4,4.9-10.1,4.1c-0.2-0.1-0.4-0.2-0.4-0.7c0-3.1,2.6-3.6,3.2-3.7l-0.2-3c-3,0-8.7,1.6-8.7,7.8c0,1.3,0.5,3.4,3.1,5.4
	c3.8,3.1,11.4,5.4,19.6,5.4c2.9,0,5.9-0.3,8.9-0.9c8.1-1.8,12.7-3.6,14.8-6.3c2.1,2.7,6.7,4.5,14.8,6.3c2.9,0.7,5.9,0.9,8.9,0.9
	c8.2,0,15.8-2.3,19.6-5.4c2.5-2,3.1-4,3.1-5.4C293.8,261,288.1,259.4,285.1,259.4z"/>
<path class="st1" d="M171.8,194.8c-3.7,14.5-4.3,27.3-4.3,27.3s6.9-27.2,49.5-27.3c0,0-6.8,11.4-12.3,15.1c0,0,52.5,1.2,74.1-12.7
	c0,0-0.8,7.6-9,12.2c0,0,13.3,1.9,28.2-13c0,0,25.8,4.1,29.3,25.2c0,0,1.2-11.5-4.5-27.4"/>
<path class="st187" d="M295.2,185.6c-2.8,10-14.1,17.1-14.1,17.1c3.9-4.2,3.5-12.9,3.5-12.9c-11.2,11.9-65.9,13.8-65.9,13.8
	c8-11.7,23-17.6,35.5-20.6"/>
<path class="st1" d="M322.5,193.5c5.7,15.9,4,26,4,26c-3.5-21.2-28.4-23-28.4-23c-14.9,14.9-28.2,13-28.2,13c8.2-4.6,9-12.2,9-12.2
	c-21.6,13.8-74.1,12.7-74.1,12.7c5.5-3.7,12.3-15.1,12.3-15.1c-42.6,0.1-49.5,27.3-49.5,27.3s0.6-12.8,4.3-27.3
	c0,0,24.7-12.3,77.7-11.3S315.1,185.7,322.5,193.5z"/>
</svg>
